<svg aria-hidden="true" style="position: absolute; width: 0; height: 0; overflow: hidden;" version="1.1" xmlns="http://www.w3.org/2000/svg" xmlns:xlink="http://www.w3.org/1999/xlink">
<defs>
<symbol id="icon-MAGNIFYING-GLASS" viewBox="0 0 32 32">
<title>MAGNIFYING-GLASS</title>
<path d="M31.096 26.862c0.541 0.543 0.877 1.291 0.877 2.119 0 1.656-1.342 2.996-2.996 2.996-0.828 0-1.576-0.336-2.119-0.877v0l-8.78-8.78c-1.783 1.055-3.856 1.669-6.077 1.669-6.618 0-11.983-5.365-11.983-11.983s5.365-11.983 11.983-11.983c6.618 0 11.983 5.365 11.983 11.983 0 2.222-0.616 4.294-1.669 6.077l8.78 8.78zM12.001 3.018c-4.964 0-8.987 4.023-8.987 8.987s4.023 8.987 8.987 8.987c4.964 0 8.987-4.023 8.987-8.987s-4.023-8.987-8.987-8.987z"></path>
</symbol>
<symbol id="icon-SHOPPING-CART" viewBox="0 0 40 32">
<title>SHOPPING-CART</title>
<path d="M39.994 7.070l0.002 0.002-5.645 12.544c-0.278 0.618-0.88 1.058-1.59 1.104v0l-16.257 1.083 0.94 2.684h17.7c2.078 0 3.763 1.685 3.763 3.763 0 2.080-1.685 3.763-3.763 3.763s-3.763-1.683-3.763-3.763h-17.561c0 2.080-1.685 3.763-3.763 3.763s-3.763-1.683-3.763-3.763c0-2.078 1.685-3.763 3.763-3.763h3.4l-7.243-20.697h-4.31c-1.040 0-1.882-0.842-1.882-1.882 0-1.038 0.842-1.882 1.882-1.882h5.645c0.821 0 1.512 0.529 1.77 1.264l0.007-0.002 1.095 3.129h27.861c1.040 0 1.882 0.842 1.882 1.882 0 0.276-0.062 0.536-0.169 0.771zM11.739 8.181l3.478 9.937 16.168-1.076 3.987-8.86h-23.632z"></path>
</symbol>
</defs>
</svg>
